SplineFontDB: 3.2
FontName: Essiah
FullName: Essiah
FamilyName: Essiah
Weight: Regular
Copyright: Copyright (c) 2023, Michael Chapman
UComments: "2023-12-3: Created with FontForge (http://fontforge.org)"
Version: 001.000
ItalicAngle: 0
UnderlinePosition: -102.4
UnderlineWidth: 51.2
Ascent: 819
Descent: 205
InvalidEm: 0
LayerCount: 2
Layer: 0 0 "Back" 1
Layer: 1 0 "Fore" 0
XUID: [1021 111 1703824445 6969350]
FSType: 0
OS2Version: 0
OS2_WeightWidthSlopeOnly: 0
OS2_UseTypoMetrics: 1
CreationTime: 1701637513
ModificationTime: 1721537105
PfmFamily: 17
TTFWeight: 400
TTFWidth: 5
LineGap: 94
VLineGap: 0
OS2TypoAscent: 839
OS2TypoAOffset: 0
OS2TypoDescent: -210
OS2TypoDOffset: 0
OS2TypoLinegap: 94
OS2WinAscent: 839
OS2WinAOffset: 0
OS2WinDescent: 210
OS2WinDOffset: 0
HheadAscent: 839
HheadAOffset: 0
HheadDescent: 210
HheadDOffset: 0
OS2Vendor: 'PfEd'
MarkAttachClasses: 1
DEI: 91125
LangName: 1033
Encoding: ISO8859-1
UnicodeInterp: none
NameList: AGL For New Fonts
DisplaySize: -72
AntiAlias: 1
FitToEm: 0
WinInfo: 52 13 7
BeginPrivate: 0
EndPrivate
Grid
608 819 m 0
 608 -205 l 1024
160 819 m 0
 160 -205 l 1024
0 544 m 0
 769 544 l 1024
6 96 m 0
 775 96 l 1024
0 354 m 0
 769 354 l 1024
0 286 m 0
 769 286 l 1024
418 819 m 0
 418 -205 l 1024
350 819 m 0
 350 -205 l 1024
0 320 m 0
 769 320 l 1024
384 819 m 0
 384 -205 l 1024
-1 640 m 0
 768 640 l 1024
704 819 m 0
 704 -205 l 1024
64 819 m 0
 64 -205 l 1024
EndSplineSet
BeginChars: 256 109

StartChar: o
Encoding: 111 111 0
Width: 768
Flags: HW
LayerCount: 2
Fore
SplineSet
384 640 m 1
 704 320 l 1
 384 0 l 1
 384 96 l 1
 574 286 l 1
 64 286 l 1
 64 320 l 1
 384 640 l 1
384 544 m 1
 194 354 l 1
 574 354 l 1
 384 544 l 1
EndSplineSet
Validated: 1
EndChar

StartChar: exclam
Encoding: 33 33 2
Width: 768
Flags: HW
LayerCount: 2
Fore
SplineSet
350 130 m 1
 350 640 l 1
 384 640 l 1
 704 320 l 1
 608 320 l 1
 418 510 l 1
 418 0 l 1
 384 0 l 1
 64 320 l 1
 160 320 l 1
 350 130 l 1
EndSplineSet
Validated: 1
EndChar

StartChar: period
Encoding: 46 46 3
Width: 768
Flags: HW
LayerCount: 2
Fore
SplineSet
350 640 m 1
 418 640 l 1
 418 0 l 1
 350 0 l 1
 350 640 l 1
EndSplineSet
Validated: 1
EndChar

StartChar: A
Encoding: 65 65 4
Width: 768
Flags: HW
LayerCount: 2
Fore
SplineSet
704 320 m 5
 704 286 l 5
 418 286 l 5
 418 0 l 5
 350 0 l 5
 350 286 l 5
 64 286 l 5
 64 320 l 5
 384 640 l 5
 704 320 l 5
194 354 m 5
 574 354 l 5
 384 544 l 5
 194 354 l 5
EndSplineSet
EndChar

StartChar: C
Encoding: 67 67 5
Width: 768
Flags: HW
LayerCount: 2
Fore
SplineSet
350 286 m 5
 194 286 l 5
 350 130 l 5
 350 286 l 5
350 640 m 5
 418 640 l 5
 418 354 l 5
 704 354 l 5
 704 286 l 5
 418 286 l 5
 418 0 l 5
 384 0 l 5
 64 320 l 5
 64 354 l 5
 350 354 l 5
 350 640 l 5
EndSplineSet
Validated: 1
EndChar

StartChar: E
Encoding: 69 69 6
Width: 768
Flags: HW
LayerCount: 2
Fore
SplineSet
384 640 m 5
 418 640 l 5
 418 354 l 5
 704 354 l 5
 704 286 l 5
 418 286 l 5
 418 0 l 5
 384 0 l 5
 64 320 l 5
 384 640 l 5
350 130 m 5
 350 510 l 5
 160 320 l 5
 350 130 l 5
EndSplineSet
EndChar

StartChar: H
Encoding: 72 72 7
Width: 768
Flags: HW
LayerCount: 2
Fore
SplineSet
384 640 m 1
 704 320 l 1
 704 286 l 1
 194 286 l 1
 384 96 l 1
 384 0 l 1
 64 320 l 1
 384 640 l 1
418 354 m 1
 574 354 l 1
 418 510 l 1
 418 354 l 1
350 354 m 1
 350 510 l 1
 194 354 l 1
 350 354 l 1
EndSplineSet
EndChar

StartChar: I
Encoding: 73 73 8
Width: 768
Flags: HW
LayerCount: 2
Fore
SplineSet
384 0 m 1
 350 0 l 1
 350 286 l 1
 64 286 l 1
 64 354 l 1
 350 354 l 1
 350 640 l 1
 384 640 l 1
 704 320 l 1
 384 0 l 1
418 510 m 1
 418 130 l 1
 608 320 l 1
 418 510 l 1
EndSplineSet
EndChar

StartChar: L
Encoding: 76 76 9
Width: 768
Flags: HW
LayerCount: 2
Fore
SplineSet
64 320 m 1
 384 640 l 1
 418 640 l 1
 418 130 l 1
 608 320 l 1
 704 320 l 1
 384 0 l 1
 64 320 l 1
350 354 m 1
 350 510 l 1
 194 354 l 1
 350 354 l 1
350 286 m 1
 194 286 l 1
 350 130 l 1
 350 286 l 1
EndSplineSet
Validated: 1
EndChar

StartChar: N
Encoding: 78 78 10
Width: 768
Flags: HW
LayerCount: 2
Fore
SplineSet
64 320 m 1
 384 640 l 1
 704 320 l 1
 608 320 l 1
 418 510 l 1
 418 0 l 1
 384 0 l 1
 64 320 l 1
350 286 m 1
 194 286 l 1
 350 130 l 1
 350 286 l 1
350 354 m 1
 350 510 l 1
 194 354 l 1
 350 354 l 1
EndSplineSet
EndChar

StartChar: O
Encoding: 79 79 11
Width: 768
Flags: HW
LayerCount: 2
Fore
SplineSet
384 640 m 1
 704 320 l 1
 384 0 l 1
 384 96 l 1
 574 286 l 1
 64 286 l 1
 64 320 l 1
 384 640 l 1
350 354 m 1
 350 510 l 1
 194 354 l 1
 350 354 l 1
418 354 m 1
 574 354 l 1
 418 510 l 1
 418 354 l 1
EndSplineSet
Validated: 1
EndChar

StartChar: S
Encoding: 83 83 12
Width: 768
Flags: HW
LayerCount: 2
Fore
SplineSet
194 354 m 1
 704 354 l 1
 704 320 l 1
 384 0 l 1
 350 0 l 1
 350 286 l 1
 64 286 l 1
 64 320 l 1
 384 640 l 1
 384 544 l 25
 194 354 l 1
418 286 m 1
 418 130 l 1
 574 286 l 1
 418 286 l 1
EndSplineSet
Validated: 1
EndChar

StartChar: T
Encoding: 84 84 13
Width: 768
Flags: HW
LayerCount: 2
Fore
SplineSet
64 320 m 1
 64 354 l 1
 350 354 l 1
 350 640 l 1
 418 640 l 1
 418 354 l 1
 704 354 l 1
 704 320 l 1
 384 0 l 1
 64 320 l 1
418 286 m 1
 418 130 l 1
 574 286 l 1
 418 286 l 1
350 286 m 5
 194 286 l 5
 350 130 l 5
 350 286 l 5
EndSplineSet
EndChar

StartChar: U
Encoding: 85 85 14
Width: 768
Flags: HW
LayerCount: 2
Fore
SplineSet
384 640 m 5
 418 640 l 5
 418 354 l 5
 704 354 l 5
 704 286 l 5
 418 286 l 5
 418 0 l 5
 384 0 l 5
 64 320 l 5
 384 640 l 5
350 130 m 5
 350 510 l 5
 160 320 l 5
 350 130 l 5
EndSplineSet
EndChar

StartChar: Y
Encoding: 89 89 15
Width: 768
Flags: HW
LayerCount: 2
Fore
SplineSet
704 320 m 5
 384 0 l 5
 350 0 l 5
 350 510 l 5
 160 320 l 5
 64 320 l 5
 384 640 l 5
 704 320 l 5
418 286 m 5
 418 130 l 5
 574 286 l 5
 418 286 l 5
418 354 m 5
 574 354 l 5
 418 510 l 5
 418 354 l 5
EndSplineSet
Validated: 1
EndChar

StartChar: Z
Encoding: 90 90 16
Width: 768
Flags: HW
LayerCount: 2
Fore
SplineSet
384 0 m 1
 350 0 l 1
 350 286 l 1
 64 286 l 1
 64 354 l 1
 350 354 l 1
 350 640 l 1
 384 640 l 1
 704 320 l 1
 384 0 l 1
418 354 m 1
 574 354 l 1
 418 510 l 1
 418 354 l 1
418 286 m 5
 418 130 l 5
 574 286 l 5
 418 286 l 5
EndSplineSet
EndChar

StartChar: a
Encoding: 97 97 17
Width: 768
Flags: HW
LayerCount: 2
Fore
SplineSet
350 0 m 1
 350 510 l 1
 160 320 l 1
 64 320 l 1
 384 640 l 1
 704 320 l 1
 608 320 l 1
 418 510 l 1
 418 0 l 1
 350 0 l 1
EndSplineSet
EndChar

StartChar: b
Encoding: 98 98 18
Width: 768
Flags: HW
LayerCount: 2
Fore
SplineSet
350 510 m 1
 160 320 l 25
 64 320 l 1
 384 640 l 1
 418 640 l 1
 418 354 l 1
 704 354 l 1
 704 320 l 1
 384 0 l 1
 350 0 l 1
 350 510 l 1
418 286 m 5
 418 130 l 5
 574 286 l 5
 418 286 l 5
EndSplineSet
Validated: 1
EndChar

StartChar: d
Encoding: 100 100 19
Width: 768
Flags: HW
LayerCount: 2
Fore
SplineSet
704 320 m 1
 384 0 l 1
 64 320 l 1
 160 320 l 1
 350 130 l 1
 350 640 l 1
 384 640 l 1
 704 320 l 1
608 320 m 1
 418 510 l 1
 418 130 l 1
 608 320 l 1
EndSplineSet
Validated: 1
EndChar

StartChar: e
Encoding: 101 101 20
Width: 768
Flags: HW
LayerCount: 2
Fore
SplineSet
704 286 m 1
 194 286 l 1
 384 96 l 1
 384 0 l 1
 64 320 l 1
 384 640 l 1
 384 544 l 1
 194 354 l 1
 704 354 l 1
 704 286 l 1
EndSplineSet
EndChar

StartChar: f
Encoding: 102 102 21
Width: 768
Flags: HW
LayerCount: 2
Fore
SplineSet
160 320 m 1
 350 130 l 1
 350 640 l 1
 418 640 l 1
 418 354 l 1
 704 354 l 1
 704 286 l 1
 418 286 l 1
 418 0 l 1
 384 0 l 1
 64 320 l 1
 160 320 l 1
EndSplineSet
Validated: 1
EndChar

StartChar: g
Encoding: 103 103 22
Width: 768
Flags: HW
LayerCount: 2
Fore
SplineSet
384 0 m 1
 64 320 l 1
 64 354 l 1
 574 354 l 1
 384 544 l 1
 384 640 l 1
 704 320 l 1
 384 0 l 1
384 96 m 1
 574 286 l 1
 194 286 l 1
 384 96 l 1
EndSplineSet
Validated: 1
EndChar

StartChar: h
Encoding: 104 104 23
Width: 768
Flags: HW
LayerCount: 2
Fore
SplineSet
384 640 m 1
 704 320 l 1
 704 286 l 1
 194 286 l 1
 384 96 l 1
 384 0 l 1
 64 320 l 1
 384 640 l 1
384 544 m 5
 194 354 l 5
 574 354 l 5
 384 544 l 5
EndSplineSet
EndChar

StartChar: i
Encoding: 105 105 24
Width: 768
Flags: HW
LayerCount: 2
Fore
SplineSet
64 354 m 1
 574 354 l 1
 384 544 l 1
 384 640 l 1
 704 320 l 1
 384 0 l 1
 384 96 l 1
 574 286 l 1
 64 286 l 1
 64 354 l 1
EndSplineSet
EndChar

StartChar: j
Encoding: 106 106 25
Width: 768
Flags: HW
LayerCount: 2
Fore
SplineSet
704 320 m 1
 384 0 l 1
 64 320 l 1
 160 320 l 1
 350 130 l 1
 350 640 l 1
 384 640 l 1
 704 320 l 1
608 320 m 1
 418 510 l 1
 418 130 l 1
 608 320 l 1
EndSplineSet
Validated: 1
EndChar

StartChar: k
Encoding: 107 107 26
Width: 768
Flags: HW
LayerCount: 2
Fore
SplineSet
384 96 m 1
 574 286 l 1
 64 286 l 1
 64 354 l 1
 350 354 l 1
 350 640 l 1
 418 640 l 1
 418 354 l 1
 704 354 l 1
 704 320 l 1
 384 0 l 1
 384 96 l 1
EndSplineSet
Validated: 1
EndChar

StartChar: l
Encoding: 108 108 27
Width: 768
Flags: HW
LayerCount: 2
Fore
SplineSet
64 320 m 1
 384 640 l 1
 418 640 l 1
 418 130 l 1
 608 320 l 1
 704 320 l 1
 384 0 l 1
 64 320 l 1
160 320 m 1
 350 130 l 1
 350 510 l 1
 160 320 l 1
EndSplineSet
Validated: 1
EndChar

StartChar: n
Encoding: 110 110 28
Width: 768
Flags: HW
LayerCount: 2
Fore
SplineSet
704 320 m 1
 384 0 l 1
 350 0 l 1
 350 510 l 1
 160 320 l 1
 64 320 l 1
 384 640 l 1
 704 320 l 1
608 320 m 1
 418 510 l 1
 418 130 l 1
 608 320 l 1
EndSplineSet
Validated: 1
EndChar

StartChar: p
Encoding: 112 112 29
Width: 768
Flags: HW
LayerCount: 2
Fore
SplineSet
350 130 m 1
 350 640 l 1
 384 640 l 1
 704 320 l 1
 704 286 l 1
 418 286 l 1
 418 0 l 1
 384 0 l 1
 64 320 l 1
 160 320 l 25
 350 130 l 1
418 354 m 1
 574 354 l 1
 418 510 l 1
 418 354 l 1
EndSplineSet
Validated: 1
EndChar

StartChar: r
Encoding: 114 114 30
Width: 768
Flags: HW
LayerCount: 2
Fore
SplineSet
64 320 m 1
 384 640 l 1
 704 320 l 1
 608 320 l 1
 418 510 l 1
 418 0 l 1
 384 0 l 1
 64 320 l 1
160 320 m 1
 350 130 l 1
 350 510 l 1
 160 320 l 1
EndSplineSet
Validated: 1
EndChar

StartChar: s
Encoding: 115 115 31
Width: 768
Flags: HW
LayerCount: 2
Fore
SplineSet
350 510 m 1
 160 320 l 25
 64 320 l 1
 384 640 l 1
 418 640 l 1
 418 354 l 1
 704 354 l 1
 704 320 l 1
 384 0 l 1
 350 0 l 1
 350 510 l 1
418 286 m 5
 418 130 l 5
 574 286 l 5
 418 286 l 5
EndSplineSet
Validated: 1
EndChar

StartChar: t
Encoding: 116 116 32
Width: 768
Flags: HW
LayerCount: 2
Fore
SplineSet
418 354 m 1
 574 354 l 1
 418 510 l 1
 418 354 l 1
350 354 m 5
 350 510 l 5
 194 354 l 5
 350 354 l 5
704 320 m 1
 704 286 l 1
 418 286 l 1
 418 0 l 1
 350 0 l 1
 350 286 l 1
 64 286 l 1
 64 320 l 1
 384 640 l 1
 704 320 l 1
EndSplineSet
EndChar

StartChar: u
Encoding: 117 117 33
Width: 768
Flags: HW
LayerCount: 2
Fore
SplineSet
704 286 m 1
 194 286 l 1
 384 96 l 1
 384 0 l 1
 64 320 l 1
 384 640 l 1
 384 544 l 1
 194 354 l 1
 704 354 l 1
 704 286 l 1
EndSplineSet
Validated: 1
EndChar

StartChar: v
Encoding: 118 118 34
Width: 768
Flags: HW
LayerCount: 2
Fore
SplineSet
418 286 m 1
 418 130 l 1
 574 286 l 1
 418 286 l 1
64 286 m 1
 64 354 l 1
 350 354 l 1
 350 640 l 1
 418 640 l 1
 418 354 l 1
 704 354 l 1
 704 320 l 1
 384 0 l 1
 350 0 l 1
 350 286 l 1
 64 286 l 1
EndSplineSet
Validated: 1
EndChar

StartChar: w
Encoding: 119 119 35
Width: 768
Flags: HW
LayerCount: 2
Fore
SplineSet
384 0 m 1
 64 320 l 1
 384 640 l 1
 384 544 l 1
 194 354 l 1
 704 354 l 1
 704 320 l 1
 384 0 l 1
384 96 m 5
 574 286 l 5
 194 286 l 5
 384 96 l 5
EndSplineSet
Validated: 1
EndChar

StartChar: x
Encoding: 120 120 36
Width: 768
Flags: HW
LayerCount: 2
Fore
SplineSet
574 286 m 1
 64 286 l 1
 64 320 l 1
 384 640 l 1
 418 640 l 1
 418 354 l 1
 704 354 l 1
 704 320 l 1
 384 0 l 1
 384 96 l 25
 574 286 l 1
350 354 m 1
 350 510 l 1
 194 354 l 1
 350 354 l 1
EndSplineSet
Validated: 1
EndChar

StartChar: y
Encoding: 121 121 37
Width: 768
Flags: HW
LayerCount: 2
Fore
SplineSet
704 320 m 1
 384 0 l 1
 350 0 l 1
 350 510 l 1
 160 320 l 1
 64 320 l 1
 384 640 l 1
 704 320 l 1
608 320 m 1
 418 510 l 1
 418 130 l 1
 608 320 l 1
EndSplineSet
Validated: 1
EndChar

StartChar: z
Encoding: 122 122 38
Width: 768
Flags: HW
LayerCount: 2
Fore
SplineSet
384 640 m 1
 418 640 l 1
 418 354 l 1
 704 354 l 1
 704 286 l 1
 418 286 l 1
 418 0 l 1
 384 0 l 1
 64 320 l 1
 384 640 l 1
350 286 m 1
 194 286 l 1
 350 130 l 1
 350 286 l 1
350 354 m 5
 350 510 l 5
 194 354 l 5
 350 354 l 5
EndSplineSet
EndChar

StartChar: uni0097
Encoding: 151 151 39
Width: 768
Flags: HW
LayerCount: 2
Fore
SplineSet
704 320 m 5
 704 286 l 5
 418 286 l 5
 418 0 l 5
 350 0 l 5
 350 286 l 5
 64 286 l 5
 64 320 l 5
 384 640 l 5
 704 320 l 5
194 354 m 5
 574 354 l 5
 384 544 l 5
 194 354 l 5
EndSplineSet
Validated: 1
EndChar

StartChar: uni0098
Encoding: 152 152 40
Width: 768
Flags: HW
LayerCount: 2
Fore
SplineSet
384 640 m 5
 418 640 l 5
 418 354 l 5
 704 354 l 5
 704 286 l 5
 418 286 l 5
 418 0 l 5
 384 0 l 5
 64 320 l 5
 384 640 l 5
350 130 m 5
 350 510 l 5
 160 320 l 5
 350 130 l 5
EndSplineSet
Validated: 1
EndChar

StartChar: uni0099
Encoding: 153 153 41
Width: 768
Flags: HW
LayerCount: 2
Fore
SplineSet
64 320 m 1
 64 354 l 1
 350 354 l 1
 350 640 l 1
 418 640 l 1
 418 354 l 1
 704 354 l 1
 704 320 l 1
 384 0 l 1
 64 320 l 1
574 286 m 1
 194 286 l 1
 384 96 l 1
 574 286 l 1
EndSplineSet
Validated: 1
EndChar

StartChar: W
Encoding: 87 87 42
Width: 768
Flags: HW
LayerCount: 2
Fore
SplineSet
384 0 m 1
 64 320 l 1
 384 640 l 1
 384 544 l 1
 194 354 l 1
 704 354 l 1
 704 320 l 1
 384 0 l 1
418 286 m 1
 418 130 l 1
 574 286 l 1
 418 286 l 1
350 286 m 1
 194 286 l 1
 350 130 l 1
 350 286 l 1
EndSplineSet
Validated: 1
EndChar

StartChar: uni0082
Encoding: 130 130 44
Width: 768
Flags: HW
LayerCount: 2
Fore
SplineSet
384 640 m 5
 704 320 l 5
 384 0 l 5
 64 320 l 5
 384 640 l 5
160 320 m 5
 384 96 l 5
 608 320 l 5
 384 544 l 5
 160 320 l 5
EndSplineSet
Validated: 1
EndChar

StartChar: uni0083
Encoding: 131 131 45
Width: 768
Flags: HW
LayerCount: 2
Fore
SplineSet
384 640 m 1
 704 320 l 1
 384 0 l 1
 64 320 l 1
 384 640 l 1
350 130 m 1
 350 510 l 1
 160 320 l 1
 350 130 l 1
418 130 m 1
 608 320 l 1
 418 510 l 1
 418 130 l 1
EndSplineSet
Validated: 1
EndChar

StartChar: uni0084
Encoding: 132 132 46
Width: 768
Flags: HW
LayerCount: 2
Fore
SplineSet
574 354 m 1
 384 544 l 1
 194 354 l 1
 574 354 l 1
574 286 m 1
 194 286 l 1
 384 96 l 1
 574 286 l 1
64 320 m 1
 384 640 l 1
 704 320 l 1
 384 0 l 1
 64 320 l 1
EndSplineSet
Validated: 1
EndChar

StartChar: uni0085
Encoding: 133 133 47
Width: 768
Flags: HW
LayerCount: 2
Fore
SplineSet
64 320 m 5
 384 640 l 5
 704 320 l 5
 384 0 l 5
 64 320 l 5
574 286 m 5
 194 286 l 5
 384 96 l 5
 574 286 l 5
574 354 m 5
 418 510 l 5
 418 354 l 5
 574 354 l 5
194 354 m 5
 350 354 l 5
 350 510 l 5
 194 354 l 5
EndSplineSet
Validated: 1
EndChar

StartChar: uni0086
Encoding: 134 134 48
Width: 768
Flags: HW
LayerCount: 2
Fore
SplineSet
384 0 m 1
 64 320 l 1
 384 640 l 1
 704 320 l 1
 384 0 l 1
418 510 m 1
 418 130 l 1
 608 320 l 1
 418 510 l 1
350 510 m 1
 194 354 l 1
 350 354 l 1
 350 510 l 1
350 130 m 1
 350 286 l 1
 194 286 l 1
 350 130 l 1
EndSplineSet
Validated: 1
EndChar

StartChar: uni0087
Encoding: 135 135 49
Width: 768
Flags: HW
LayerCount: 2
Fore
SplineSet
704 320 m 1
 384 0 l 1
 64 320 l 1
 384 640 l 1
 704 320 l 1
194 354 m 1
 574 354 l 1
 384 544 l 1
 194 354 l 1
194 286 m 1
 350 130 l 1
 350 286 l 1
 194 286 l 1
574 286 m 1
 418 286 l 1
 418 130 l 1
 574 286 l 1
EndSplineSet
Validated: 1
EndChar

StartChar: uni0088
Encoding: 136 136 50
Width: 768
Flags: HW
LayerCount: 2
Fore
SplineSet
384 640 m 1
 704 320 l 1
 384 0 l 1
 64 320 l 1
 384 640 l 1
350 130 m 1
 350 510 l 1
 160 320 l 1
 350 130 l 1
418 130 m 1
 574 286 l 1
 418 286 l 1
 418 130 l 1
418 510 m 1
 418 354 l 1
 574 354 l 1
 418 510 l 1
EndSplineSet
Validated: 1
EndChar

StartChar: uni0089
Encoding: 137 137 51
Width: 768
Flags: HW
LayerCount: 2
Fore
SplineSet
194 354 m 1
 350 354 l 1
 350 510 l 1
 194 354 l 1
574 354 m 1
 418 510 l 1
 418 354 l 1
 574 354 l 1
194 286 m 1
 350 130 l 1
 350 286 l 1
 194 286 l 1
574 286 m 1
 418 286 l 1
 418 130 l 1
 574 286 l 1
64 320 m 1
 384 640 l 1
 704 320 l 1
 384 0 l 1
 64 320 l 1
EndSplineSet
Validated: 1
EndChar

StartChar: uni008A
Encoding: 138 138 52
Width: 768
Flags: HW
LayerCount: 2
Fore
SplineSet
194 286 m 1
 384 96 l 1
 384 0 l 1
 64 320 l 1
 64 354 l 1
 574 354 l 1
 384 544 l 1
 384 640 l 1
 704 320 l 1
 704 286 l 1
 194 286 l 1
EndSplineSet
Validated: 1
EndChar

StartChar: uni008B
Encoding: 139 139 53
Width: 768
Flags: HW
LayerCount: 2
Fore
SplineSet
418 130 m 1
 608 320 l 1
 704 320 l 1
 384 0 l 1
 350 0 l 1
 350 510 l 1
 160 320 l 1
 64 320 l 1
 384 640 l 1
 418 640 l 1
 418 130 l 1
EndSplineSet
Validated: 1
EndChar

StartChar: uni008C
Encoding: 140 140 54
Width: 768
Flags: HW
LayerCount: 2
Fore
SplineSet
574 286 m 5
 64 286 l 5
 64 320 l 5
 384 640 l 5
 384 544 l 5
 194 354 l 5
 704 354 l 5
 704 320 l 5
 384 0 l 5
 384 96 l 5
 574 286 l 5
EndSplineSet
Validated: 1
EndChar

StartChar: uni008D
Encoding: 141 141 55
Width: 768
Flags: HW
LayerCount: 2
Fore
SplineSet
350 130 m 1
 350 640 l 1
 384 640 l 1
 704 320 l 1
 608 320 l 1
 418 510 l 1
 418 0 l 1
 384 0 l 1
 64 320 l 1
 160 320 l 1
 350 130 l 1
EndSplineSet
Validated: 1
EndChar

StartChar: uni008F
Encoding: 143 143 56
Width: 768
Flags: HW
LayerCount: 2
Fore
SplineSet
350 0 m 1
 350 510 l 1
 160 320 l 1
 64 320 l 1
 384 640 l 1
 704 320 l 1
 608 320 l 1
 418 510 l 1
 418 0 l 1
 350 0 l 1
EndSplineSet
Validated: 1
EndChar

StartChar: uni0090
Encoding: 144 144 57
Width: 768
Flags: HW
LayerCount: 2
Fore
SplineSet
704 286 m 1
 194 286 l 1
 384 96 l 1
 384 0 l 1
 64 320 l 1
 384 640 l 1
 384 544 l 1
 194 354 l 1
 704 354 l 1
 704 286 l 1
EndSplineSet
Validated: 1
EndChar

StartChar: uni0091
Encoding: 145 145 58
Width: 768
Flags: HW
LayerCount: 2
Fore
SplineSet
418 640 m 1
 418 130 l 1
 608 320 l 1
 704 320 l 1
 384 0 l 1
 64 320 l 1
 160 320 l 1
 350 130 l 1
 350 640 l 1
 418 640 l 1
EndSplineSet
Validated: 1
EndChar

StartChar: uni0092
Encoding: 146 146 59
Width: 768
Flags: HW
LayerCount: 2
Fore
SplineSet
64 354 m 1
 574 354 l 1
 384 544 l 1
 384 640 l 1
 704 320 l 1
 384 0 l 1
 384 96 l 1
 574 286 l 1
 64 286 l 1
 64 354 l 1
EndSplineSet
Validated: 1
EndChar

StartChar: uni0093
Encoding: 147 147 60
Width: 768
Flags: HW
LayerCount: 2
Fore
SplineSet
418 354 m 1
 574 354 l 1
 418 510 l 1
 418 354 l 1
350 354 m 5
 350 510 l 5
 194 354 l 5
 350 354 l 5
704 320 m 1
 704 286 l 1
 418 286 l 1
 418 0 l 1
 350 0 l 1
 350 286 l 1
 64 286 l 1
 64 320 l 1
 384 640 l 1
 704 320 l 1
EndSplineSet
Validated: 1
EndChar

StartChar: uni0094
Encoding: 148 148 61
Width: 768
Flags: HW
LayerCount: 2
Fore
SplineSet
384 640 m 1
 418 640 l 1
 418 354 l 1
 704 354 l 1
 704 286 l 1
 418 286 l 1
 418 0 l 1
 384 0 l 1
 64 320 l 1
 384 640 l 1
350 286 m 1
 194 286 l 1
 350 130 l 1
 350 286 l 1
350 354 m 5
 350 510 l 5
 194 354 l 5
 350 354 l 5
EndSplineSet
Validated: 1
EndChar

StartChar: uni0095
Encoding: 149 149 62
Width: 768
Flags: HW
LayerCount: 2
Fore
SplineSet
64 320 m 1
 64 354 l 1
 350 354 l 1
 350 640 l 1
 418 640 l 1
 418 354 l 1
 704 354 l 1
 704 320 l 1
 384 0 l 1
 64 320 l 1
418 286 m 1
 418 130 l 1
 574 286 l 1
 418 286 l 1
350 286 m 5
 194 286 l 5
 350 130 l 5
 350 286 l 5
EndSplineSet
Validated: 1
EndChar

StartChar: uni0096
Encoding: 150 150 63
Width: 768
Flags: HW
LayerCount: 2
Fore
SplineSet
384 0 m 1
 350 0 l 1
 350 286 l 1
 64 286 l 1
 64 354 l 1
 350 354 l 1
 350 640 l 1
 384 640 l 1
 704 320 l 1
 384 0 l 1
418 354 m 1
 574 354 l 1
 418 510 l 1
 418 354 l 1
418 286 m 5
 418 130 l 5
 574 286 l 5
 418 286 l 5
EndSplineSet
Validated: 1
EndChar

StartChar: uni009A
Encoding: 154 154 64
Width: 768
Flags: HW
LayerCount: 2
Fore
SplineSet
384 0 m 1
 350 0 l 1
 350 286 l 1
 64 286 l 1
 64 354 l 1
 350 354 l 1
 350 640 l 1
 384 640 l 1
 704 320 l 1
 384 0 l 1
418 510 m 1
 418 130 l 1
 608 320 l 1
 418 510 l 1
EndSplineSet
Validated: 1
EndChar

StartChar: uni009C
Encoding: 156 156 65
Width: 768
Flags: HW
LayerCount: 2
Fore
SplineSet
350 354 m 5
 350 510 l 5
 194 354 l 5
 350 354 l 5
704 354 m 5
 704 286 l 5
 418 286 l 5
 418 0 l 5
 350 0 l 5
 350 286 l 5
 64 286 l 5
 64 320 l 5
 384 640 l 5
 418 640 l 5
 418 354 l 5
 704 354 l 5
EndSplineSet
Validated: 1
EndChar

StartChar: uni009D
Encoding: 157 157 66
Width: 768
Flags: HW
LayerCount: 2
Fore
SplineSet
350 286 m 5
 194 286 l 5
 350 130 l 5
 350 286 l 5
350 640 m 5
 418 640 l 5
 418 354 l 5
 704 354 l 5
 704 286 l 5
 418 286 l 5
 418 0 l 5
 384 0 l 5
 64 320 l 5
 64 354 l 5
 350 354 l 5
 350 640 l 5
EndSplineSet
Validated: 1
EndChar

StartChar: uni009E
Encoding: 158 158 67
Width: 768
Flags: HW
LayerCount: 2
Fore
SplineSet
418 286 m 1
 418 130 l 1
 574 286 l 1
 418 286 l 1
64 286 m 1
 64 354 l 1
 350 354 l 1
 350 640 l 1
 418 640 l 1
 418 354 l 1
 704 354 l 1
 704 320 l 1
 384 0 l 1
 350 0 l 1
 350 286 l 1
 64 286 l 1
EndSplineSet
Validated: 1
EndChar

StartChar: uni009F
Encoding: 159 159 68
Width: 768
Flags: HW
LayerCount: 2
Fore
SplineSet
418 354 m 5
 574 354 l 5
 418 510 l 5
 418 354 l 5
418 0 m 5
 350 0 l 5
 350 286 l 5
 64 286 l 5
 64 354 l 5
 350 354 l 5
 350 640 l 5
 384 640 l 5
 704 320 l 5
 704 286 l 5
 418 286 l 5
 418 0 l 5
EndSplineSet
Validated: 1
EndChar

StartChar: uni00A0
Encoding: 160 160 69
Width: 768
Flags: HW
LayerCount: 2
Fore
SplineSet
384 544 m 5
 194 354 l 5
 704 354 l 5
 704 286 l 5
 418 286 l 5
 418 0 l 5
 350 0 l 5
 350 286 l 5
 64 286 l 5
 64 320 l 5
 384 640 l 5
 384 544 l 5
EndSplineSet
Validated: 1
EndChar

StartChar: exclamdown
Encoding: 161 161 70
Width: 768
Flags: HW
LayerCount: 2
Fore
SplineSet
160 320 m 1
 350 130 l 1
 350 640 l 1
 418 640 l 1
 418 354 l 1
 704 354 l 1
 704 286 l 1
 418 286 l 1
 418 0 l 1
 384 0 l 1
 64 320 l 1
 160 320 l 1
EndSplineSet
Validated: 1
EndChar

StartChar: cent
Encoding: 162 162 71
Width: 768
Flags: HW
LayerCount: 2
Fore
SplineSet
384 96 m 1
 574 286 l 1
 64 286 l 1
 64 354 l 1
 350 354 l 1
 350 640 l 1
 418 640 l 1
 418 354 l 1
 704 354 l 1
 704 320 l 1
 384 0 l 1
 384 96 l 1
EndSplineSet
Validated: 1
EndChar

StartChar: sterling
Encoding: 163 163 72
Width: 768
Flags: HW
LayerCount: 2
Fore
SplineSet
608 320 m 1
 418 510 l 1
 418 0 l 1
 350 0 l 1
 350 286 l 1
 64 286 l 1
 64 354 l 1
 350 354 l 1
 350 640 l 1
 384 640 l 1
 704 320 l 1
 608 320 l 1
EndSplineSet
Validated: 1
EndChar

StartChar: copyright
Encoding: 169 169 73
Width: 768
Flags: HW
LayerCount: 2
Fore
SplineSet
418 130 m 1
 608 320 l 25
 704 320 l 1
 384 0 l 1
 350 0 l 1
 350 286 l 1
 64 286 l 1
 64 320 l 1
 384 640 l 1
 418 640 l 1
 418 130 l 1
350 354 m 5
 350 510 l 5
 194 354 l 5
 350 354 l 5
EndSplineSet
Validated: 1
EndChar

StartChar: ordfeminine
Encoding: 170 170 74
Width: 768
Flags: HW
LayerCount: 2
Fore
SplineSet
574 354 m 1
 384 544 l 25
 384 640 l 1
 704 320 l 1
 704 286 l 1
 418 286 l 1
 418 0 l 1
 384 0 l 1
 64 320 l 1
 64 354 l 1
 574 354 l 1
350 286 m 5
 194 286 l 5
 350 130 l 5
 350 286 l 5
EndSplineSet
Validated: 1
EndChar

StartChar: guillemotleft
Encoding: 171 171 75
Width: 768
Flags: HW
LayerCount: 2
Fore
SplineSet
350 510 m 1
 160 320 l 25
 64 320 l 1
 384 640 l 1
 418 640 l 1
 418 354 l 1
 704 354 l 1
 704 320 l 1
 384 0 l 1
 350 0 l 1
 350 510 l 1
418 286 m 5
 418 130 l 5
 574 286 l 5
 418 286 l 5
EndSplineSet
Validated: 1
EndChar

StartChar: logicalnot
Encoding: 172 172 76
Width: 768
Flags: HW
LayerCount: 2
Fore
SplineSet
194 286 m 1
 384 96 l 25
 384 0 l 1
 64 320 l 1
 64 354 l 1
 350 354 l 1
 350 640 l 1
 384 640 l 1
 704 320 l 1
 704 286 l 1
 194 286 l 1
418 354 m 5
 574 354 l 5
 418 510 l 5
 418 354 l 5
EndSplineSet
Validated: 1
EndChar

StartChar: uni00AD
Encoding: 173 173 77
Width: 768
Flags: HW
LayerCount: 2
Fore
SplineSet
574 286 m 1
 64 286 l 1
 64 320 l 1
 384 640 l 1
 418 640 l 1
 418 354 l 1
 704 354 l 1
 704 320 l 1
 384 0 l 1
 384 96 l 25
 574 286 l 1
350 354 m 1
 350 510 l 1
 194 354 l 1
 350 354 l 1
EndSplineSet
Validated: 1
EndChar

StartChar: registered
Encoding: 174 174 78
Width: 768
Flags: HW
LayerCount: 2
Fore
SplineSet
418 510 m 1
 418 0 l 1
 384 0 l 1
 64 320 l 1
 64 354 l 1
 350 354 l 1
 350 640 l 1
 384 640 l 1
 704 320 l 1
 608 320 l 25
 418 510 l 1
350 286 m 1
 194 286 l 1
 350 130 l 1
 350 286 l 1
EndSplineSet
Validated: 1
EndChar

StartChar: macron
Encoding: 175 175 79
Width: 768
Flags: HW
LayerCount: 2
Fore
SplineSet
194 354 m 1
 704 354 l 1
 704 320 l 1
 384 0 l 1
 350 0 l 1
 350 286 l 1
 64 286 l 1
 64 320 l 1
 384 640 l 1
 384 544 l 25
 194 354 l 1
418 286 m 1
 418 130 l 1
 574 286 l 1
 418 286 l 1
EndSplineSet
Validated: 1
EndChar

StartChar: degree
Encoding: 176 176 80
Width: 768
Flags: HW
LayerCount: 2
Fore
SplineSet
350 130 m 1
 350 640 l 1
 384 640 l 1
 704 320 l 1
 704 286 l 1
 418 286 l 1
 418 0 l 1
 384 0 l 1
 64 320 l 1
 160 320 l 25
 350 130 l 1
418 354 m 1
 574 354 l 1
 418 510 l 1
 418 354 l 1
EndSplineSet
Validated: 1
EndChar

StartChar: paragraph
Encoding: 182 182 82
Width: 768
Flags: HW
LayerCount: 2
Fore
SplineSet
384 640 m 1
 704 320 l 1
 704 286 l 1
 194 286 l 1
 384 96 l 1
 384 0 l 1
 64 320 l 1
 384 640 l 1
384 544 m 5
 194 354 l 5
 574 354 l 5
 384 544 l 5
EndSplineSet
Validated: 1
EndChar

StartChar: periodcentered
Encoding: 183 183 83
Width: 768
Flags: HW
LayerCount: 2
Fore
SplineSet
64 320 m 1
 384 640 l 1
 418 640 l 1
 418 130 l 1
 608 320 l 1
 704 320 l 1
 384 0 l 1
 64 320 l 1
160 320 m 1
 350 130 l 1
 350 510 l 1
 160 320 l 1
EndSplineSet
Validated: 1
EndChar

StartChar: cedilla
Encoding: 184 184 84
Width: 768
Flags: HW
LayerCount: 2
Fore
SplineSet
384 0 m 1
 64 320 l 1
 64 354 l 1
 574 354 l 1
 384 544 l 1
 384 640 l 1
 704 320 l 1
 384 0 l 1
384 96 m 1
 574 286 l 1
 194 286 l 1
 384 96 l 1
EndSplineSet
Validated: 1
EndChar

StartChar: uni00B9
Encoding: 185 185 85
Width: 768
Flags: HW
LayerCount: 2
Fore
SplineSet
704 320 m 1
 384 0 l 1
 350 0 l 1
 350 510 l 1
 160 320 l 1
 64 320 l 1
 384 640 l 1
 704 320 l 1
608 320 m 1
 418 510 l 1
 418 130 l 1
 608 320 l 1
EndSplineSet
Validated: 1
EndChar

StartChar: ordmasculine
Encoding: 186 186 86
Width: 768
Flags: HW
LayerCount: 2
Fore
SplineSet
384 640 m 1
 704 320 l 1
 384 0 l 1
 384 96 l 1
 574 286 l 1
 64 286 l 1
 64 320 l 1
 384 640 l 1
384 544 m 1
 194 354 l 1
 574 354 l 1
 384 544 l 1
EndSplineSet
Validated: 1
EndChar

StartChar: guillemotright
Encoding: 187 187 87
Width: 768
Flags: HW
LayerCount: 2
Fore
SplineSet
64 320 m 1
 384 640 l 1
 704 320 l 1
 608 320 l 1
 418 510 l 1
 418 0 l 1
 384 0 l 1
 64 320 l 1
160 320 m 1
 350 130 l 1
 350 510 l 1
 160 320 l 1
EndSplineSet
Validated: 1
EndChar

StartChar: onequarter
Encoding: 188 188 88
Width: 768
Flags: HW
LayerCount: 2
Fore
SplineSet
384 0 m 1
 64 320 l 1
 384 640 l 1
 384 544 l 1
 194 354 l 1
 704 354 l 1
 704 320 l 1
 384 0 l 1
384 96 m 5
 574 286 l 5
 194 286 l 5
 384 96 l 5
EndSplineSet
Validated: 1
EndChar

StartChar: onehalf
Encoding: 189 189 89
Width: 768
Flags: HW
LayerCount: 2
Fore
SplineSet
704 320 m 1
 384 0 l 1
 64 320 l 1
 160 320 l 1
 350 130 l 1
 350 640 l 1
 384 640 l 1
 704 320 l 1
608 320 m 1
 418 510 l 1
 418 130 l 1
 608 320 l 1
EndSplineSet
Validated: 1
EndChar

StartChar: Atilde
Encoding: 195 195 90
Width: 768
Flags: HW
LayerCount: 2
Fore
SplineSet
384 640 m 1
 704 320 l 1
 704 286 l 1
 194 286 l 1
 384 96 l 1
 384 0 l 1
 64 320 l 1
 384 640 l 1
418 354 m 1
 574 354 l 1
 418 510 l 1
 418 354 l 1
350 354 m 1
 350 510 l 1
 194 354 l 1
 350 354 l 1
EndSplineSet
Validated: 1
EndChar

StartChar: Adieresis
Encoding: 196 196 91
Width: 768
Flags: HW
LayerCount: 2
Fore
SplineSet
64 320 m 1
 384 640 l 1
 418 640 l 1
 418 130 l 1
 608 320 l 1
 704 320 l 1
 384 0 l 1
 64 320 l 1
350 354 m 1
 350 510 l 1
 194 354 l 1
 350 354 l 1
350 286 m 1
 194 286 l 1
 350 130 l 1
 350 286 l 1
EndSplineSet
Validated: 1
EndChar

StartChar: Aring
Encoding: 197 197 92
Width: 768
Flags: HW
LayerCount: 2
Fore
SplineSet
384 0 m 1
 64 320 l 1
 64 354 l 1
 574 354 l 1
 384 544 l 1
 384 640 l 1
 704 320 l 1
 384 0 l 1
350 286 m 1
 194 286 l 1
 350 130 l 1
 350 286 l 1
418 286 m 1
 418 130 l 1
 574 286 l 1
 418 286 l 1
EndSplineSet
Validated: 1
EndChar

StartChar: AE
Encoding: 198 198 93
Width: 768
Flags: HW
LayerCount: 2
Fore
SplineSet
704 320 m 5
 384 0 l 5
 350 0 l 5
 350 510 l 5
 160 320 l 5
 64 320 l 5
 384 640 l 5
 704 320 l 5
418 286 m 5
 418 130 l 5
 574 286 l 5
 418 286 l 5
418 354 m 5
 574 354 l 5
 418 510 l 5
 418 354 l 5
EndSplineSet
Validated: 1
EndChar

StartChar: Ccedilla
Encoding: 199 199 94
Width: 768
Flags: HW
LayerCount: 2
Fore
SplineSet
384 640 m 1
 704 320 l 1
 384 0 l 1
 384 96 l 1
 574 286 l 1
 64 286 l 1
 64 320 l 1
 384 640 l 1
350 354 m 1
 350 510 l 1
 194 354 l 1
 350 354 l 1
418 354 m 1
 574 354 l 1
 418 510 l 1
 418 354 l 1
EndSplineSet
Validated: 1
EndChar

StartChar: Egrave
Encoding: 200 200 95
Width: 768
Flags: HW
LayerCount: 2
Fore
SplineSet
64 320 m 1
 384 640 l 1
 704 320 l 1
 608 320 l 1
 418 510 l 1
 418 0 l 1
 384 0 l 1
 64 320 l 1
350 286 m 1
 194 286 l 1
 350 130 l 1
 350 286 l 1
350 354 m 1
 350 510 l 1
 194 354 l 1
 350 354 l 1
EndSplineSet
Validated: 1
EndChar

StartChar: Eacute
Encoding: 201 201 96
Width: 768
Flags: HW
LayerCount: 2
Fore
SplineSet
384 0 m 1
 64 320 l 1
 384 640 l 1
 384 544 l 1
 194 354 l 1
 704 354 l 1
 704 320 l 1
 384 0 l 1
418 286 m 1
 418 130 l 1
 574 286 l 1
 418 286 l 1
350 286 m 1
 194 286 l 1
 350 130 l 1
 350 286 l 1
EndSplineSet
Validated: 1
EndChar

StartChar: Ecircumflex
Encoding: 202 202 97
Width: 768
Flags: HW
LayerCount: 2
Fore
SplineSet
704 320 m 1
 384 0 l 1
 64 320 l 1
 160 320 l 1
 350 130 l 1
 350 640 l 1
 384 640 l 1
 704 320 l 1
418 354 m 1
 574 354 l 1
 418 510 l 1
 418 354 l 1
418 286 m 1
 418 130 l 1
 574 286 l 1
 418 286 l 1
EndSplineSet
Validated: 1
EndChar

StartChar: zero
Encoding: 48 48 98
Width: 768
Flags: HW
LayerCount: 2
Fore
SplineSet
384 640 m 5
 704 320 l 5
 384 0 l 5
 64 320 l 5
 384 640 l 5
160 320 m 5
 384 96 l 5
 608 320 l 5
 384 544 l 5
 160 320 l 5
EndSplineSet
Validated: 1
EndChar

StartChar: one
Encoding: 49 49 99
Width: 768
Flags: HW
LayerCount: 2
Fore
SplineSet
384 640 m 1
 704 320 l 1
 384 0 l 1
 64 320 l 1
 384 640 l 1
350 130 m 1
 350 510 l 1
 160 320 l 1
 350 130 l 1
418 130 m 1
 608 320 l 1
 418 510 l 1
 418 130 l 1
EndSplineSet
Validated: 1
EndChar

StartChar: two
Encoding: 50 50 100
Width: 768
Flags: HW
LayerCount: 2
Fore
SplineSet
574 354 m 1
 384 544 l 1
 194 354 l 1
 574 354 l 1
574 286 m 1
 194 286 l 1
 384 96 l 1
 574 286 l 1
64 320 m 1
 384 640 l 1
 704 320 l 1
 384 0 l 1
 64 320 l 1
EndSplineSet
Validated: 1
EndChar

StartChar: eight
Encoding: 56 56 101
Width: 768
Flags: HW
LayerCount: 2
Fore
SplineSet
194 286 m 1
 384 96 l 1
 384 0 l 1
 64 320 l 1
 64 354 l 1
 574 354 l 1
 384 544 l 1
 384 640 l 1
 704 320 l 1
 704 286 l 1
 194 286 l 1
EndSplineSet
Validated: 1
EndChar

StartChar: three
Encoding: 51 51 102
Width: 768
Flags: HW
LayerCount: 2
Fore
SplineSet
64 320 m 5
 384 640 l 5
 704 320 l 5
 384 0 l 5
 64 320 l 5
574 286 m 5
 194 286 l 5
 384 96 l 5
 574 286 l 5
574 354 m 5
 418 510 l 5
 418 354 l 5
 574 354 l 5
194 354 m 5
 350 354 l 5
 350 510 l 5
 194 354 l 5
EndSplineSet
Validated: 1
EndChar

StartChar: four
Encoding: 52 52 103
Width: 768
Flags: HW
LayerCount: 2
Fore
SplineSet
384 0 m 1
 64 320 l 1
 384 640 l 1
 704 320 l 1
 384 0 l 1
418 510 m 1
 418 130 l 1
 608 320 l 1
 418 510 l 1
350 510 m 1
 194 354 l 1
 350 354 l 1
 350 510 l 1
350 130 m 1
 350 286 l 1
 194 286 l 1
 350 130 l 1
EndSplineSet
Validated: 1
EndChar

StartChar: five
Encoding: 53 53 104
Width: 768
Flags: HW
LayerCount: 2
Fore
SplineSet
704 320 m 1
 384 0 l 1
 64 320 l 1
 384 640 l 1
 704 320 l 1
194 354 m 1
 574 354 l 1
 384 544 l 1
 194 354 l 1
194 286 m 1
 350 130 l 1
 350 286 l 1
 194 286 l 1
574 286 m 1
 418 286 l 1
 418 130 l 1
 574 286 l 1
EndSplineSet
Validated: 1
EndChar

StartChar: six
Encoding: 54 54 105
Width: 768
Flags: HW
LayerCount: 2
Fore
SplineSet
384 640 m 1
 704 320 l 1
 384 0 l 1
 64 320 l 1
 384 640 l 1
350 130 m 1
 350 510 l 1
 160 320 l 1
 350 130 l 1
418 130 m 1
 574 286 l 1
 418 286 l 1
 418 130 l 1
418 510 m 1
 418 354 l 1
 574 354 l 1
 418 510 l 1
EndSplineSet
Validated: 1
EndChar

StartChar: seven
Encoding: 55 55 106
Width: 768
Flags: HW
LayerCount: 2
Fore
SplineSet
194 354 m 1
 350 354 l 1
 350 510 l 1
 194 354 l 1
574 354 m 1
 418 510 l 1
 418 354 l 1
 574 354 l 1
194 286 m 1
 350 130 l 1
 350 286 l 1
 194 286 l 1
574 286 m 1
 418 286 l 1
 418 130 l 1
 574 286 l 1
64 320 m 1
 384 640 l 1
 704 320 l 1
 384 0 l 1
 64 320 l 1
EndSplineSet
Validated: 1
EndChar

StartChar: nine
Encoding: 57 57 107
Width: 768
Flags: HW
LayerCount: 2
Fore
SplineSet
418 130 m 1
 608 320 l 1
 704 320 l 1
 384 0 l 1
 350 0 l 1
 350 510 l 1
 160 320 l 1
 64 320 l 1
 384 640 l 1
 418 640 l 1
 418 130 l 1
EndSplineSet
Validated: 1
EndChar

StartChar: parenright
Encoding: 41 41 108
Width: 768
Flags: HW
LayerCount: 2
Fore
SplineSet
574 286 m 5
 64 286 l 5
 64 320 l 5
 384 640 l 5
 384 544 l 5
 194 354 l 5
 704 354 l 5
 704 320 l 5
 384 0 l 5
 384 96 l 5
 574 286 l 5
EndSplineSet
Validated: 1
EndChar
